# xmcd
#
# Track frame offsets:
#	150
#	9741
#	21138
#	29654
#	38633
#	49300
#	58610
#	70060
#	81489
#	94527
#	103842
#	114212
#	125048
#	137760
#	148947
#	166580
#	179370
#	194142
#	204568
#	215470
#	224214
#	235252
#	245983
#	259049
#	268970
#	284598
#	298277
#	307767
#	317348
#	326453
#
# Disc length: 4502 seconds
#
# Revision: 1
# Processed by: cddbd v1.5.2PL0 Copyright (c) Steve Scherf et al.
# Submitted via: audiograbber 1.83.01
#
DISCID=dd11941e
DTITLE=Los Inquitos - Los Amos - Mano A Mano
DYEAR=1900
DGENRE=
TTITLE0=La Borrachera
TTITLE1=Desmadre En El Bano
TTITLE2=El Bucanas
TTITLE3=Pos Las Viejas Carnalito
TTITLE4=El Agallas De Acero
TTITLE5=El Rancho Del Viejo
TTITLE6=Los Tres Hampones
TTITLE7=Tu Pendejo
TTITLE8=La Clika
TTITLE9=Un Pobre diablo
TTITLE10=Noche De Desmadre
TTITLE11=Oliendo A Mallate
TTITLE12=Me Cayo El Fbi
TTITLE13=Soy Popular
TTITLE14=Como Pez Sin Agua
TTITLE15=Donde Me Criaron Mis Viejos
TTITLE16=Amor Total
TTITLE17=El Fin De Semana
TTITLE18=Gente De Zacatecas
TTITLE19=Me Encanta El Crista
TTITLE20=Familia Vegara
TTITLE21=Que Perra
TTITLE22=Las Parandas
TTITLE23=Los Socios
TTITLE24=El Mion
TTITLE25=Ingrata Mujer
TTITLE26=Deveras Que Es Bien Chingon
TTITLE27=Me La Pelaron Los Narcos
TTITLE28=Mi Recorrido
TTITLE29=Tu Perplejo
EXTD=
EXTT0=
EXTT1=
EXTT2=
EXTT3=
EXTT4=
EXTT5=
EXTT6=
EXTT7=
EXTT8=
EXTT9=
EXTT10=
EXTT11=
EXTT12=
EXTT13=
EXTT14=
EXTT15=
EXTT16=
EXTT17=
EXTT18=
EXTT19=
EXTT20=
EXTT21=
EXTT22=
EXTT23=
EXTT24=
EXTT25=
EXTT26=
EXTT27=
EXTT28=
EXTT29=
PLAYORDER=
